# xmcd
# 
# Track frame offsets:
#     150
#     16687
#     35957
#     53590
#     72492
#     92152
#     107082
#     123040
#     142297
#     164715
#     181795
#     197987
#     214240
#     233485
#     249882
#     266190
# 
# Disc length: 3762
# 
# Revision: 1
# Processed by: cddbd v1.5.2PL0 Copyright (c) Steve Scherf et al.
# Submitted via: BonkEnc v1.0.5
# 
DISCID=e90eb010
DTITLE=Rainhard Fendrich - Rainhard Fendrich - Das Beste von Rainhard Fendrich
DYEAR=1999
DGENRE=Schlager
TTITLE0=Schickeria
TTITLE1=Razzia
TTITLE2=Oben ohne
TTITLE3=Es lebe der Sport
TTITLE4=Auf und davon
TTITLE5=Strada del Sole
TTITLE6=Ich bin ein Negerant Madam
TTITLE7=Macho Macho
TTITLE8=Zwischen Eins und Vier
TTITLE9=Es tuat so weh, wenn ma verliert
TTITLE10=Die feinen Damen
TTITLE11=Weus'd a Herz hast wia a Bergwerk
TTITLE12=Vü schöner is des G'fühl
TTITLE13=Zweierbeziehung
TTITLE14=Sonntagnachmittag
TTITLE15=Haben Sie Wien schon bei Nacht geseh'n
EXTD=YEAR: 1999
EXTT0=
EXTT1=
EXTT2=
EXTT3=
EXTT4=
EXTT5=
EXTT6=
EXTT7=
EXTT8=
EXTT9=
EXTT10=
EXTT11=
EXTT12=
EXTT13=
EXTT14=
EXTT15=
PLAYORDER=
